<?xml version="1.0" standalone="no"?>
<!DOCTYPE svg PUBLIC "-//W3C//DTD SVG 20010904//EN"
 "http://www.w3.org/TR/2001/REC-SVG-20010904/DTD/svg10.dtd">
<svg version="1.0" xmlns="http://www.w3.org/2000/svg"
 width="288.000000pt" height="288.000000pt" viewBox="0 0 288.000000 288.000000"
 preserveAspectRatio="xMidYMid meet">
<metadata>
Created by potrace 1.14, written by Peter Selinger 2001-2017
</metadata>
<g transform="translate(0.000000,288.000000) scale(0.100000,-0.100000)"
fill="#000000" stroke="none">
<path d="M1520 2868 c-200 -17 -461 -75 -650 -145 -108 -40 -263 -119 -383
-195 -131 -83 -138 -103 -35 -93 383 38 459 38 753 -1 499 -65 853 -297 899
-589 7 -43 -3 -175 -13 -175 -3 0 -14 27 -25 61 -122 392 -664 525 -1298 319
-234 -77 -473 -195 -492 -246 -13 -35 13 -62 106 -109 l94 -48 -65 -33 c-173
-86 -289 -280 -331 -548 -13 -80 -16 -279 -5 -346 33 -221 88 -365 214 -560
101 -156 121 -174 139 -122 5 15 24 62 42 105 l32 78 36 -6 c20 -3 55 -16 78
-30 22 -13 65 -34 94 -45 66 -26 284 -85 365 -99 33 -6 76 -13 95 -16 58 -11
309 -12 415 -3 298 24 599 109 800 223 124 71 308 215 293 230 -3 3 -26 7 -51
9 -65 6 -157 38 -157 56 0 4 17 12 38 18 48 15 122 87 165 161 98 167 140 357
136 615 -3 207 -36 357 -100 458 l-32 49 -63 -63 c-101 -100 -173 -132 -344
-153 l-55 -7 75 38 c139 70 233 197 281 379 30 114 31 275 1 370 -101 330
-508 508 -1052 463z"/>
</g>
</svg>
